<svg xmlns="http://www.w3.org/2000/svg" width="300" height="250" fill="none" viewBox="0 0 300 250">
  <mask id="a" width="300" height="250" x="0" y="0" maskUnits="userSpaceOnUse" style="mask-type:luminance">
    <path fill="#fff" d="M300 0H0v250h300V0Z"/>
  </mask>
  <g mask="url(#a)">
    <path fill="url(#b)" d="M144.193 0 72.676 250H0l36.61-127.978L71.518 0h72.675Z"/>
    <path fill="url(#c)" d="m227.631 0-71.518 250H83.438l36.61-127.978L154.955 0h72.676Z"/>
    <path fill="url(#d)" d="M299.999 250h-72.641l-12.908-45.074v-.036l-17.606-61.544L233.181 16.36 299.999 250Z"/>
    <path fill="#fff" d="M134.964 7.353 9.229 242.647 76.558 7.353h58.406Zm83.438 0L92.667 242.647 159.995 7.353h58.407Z" opacity=".4" style="mix-blend-mode:screen"/>
    <path fill="#000" d="m233.182 16.36-18.731 188.548-17.614-61.562L233.182 16.36ZM227.631 0l-71.518 250H83.437c12.124-.772 24.214-1.103 36.338-1.691l18.152-.588 16.245-.409a3818.482 3818.482 0 0 1 16.653-60.878l8.855-31.25 9.059-31.213c6.164-20.772 12.396-41.508 18.833-62.206 3.269-10.294 6.47-20.662 9.842-30.92 3.372-10.257 6.675-20.628 10.217-30.845Zm-83.438 0L72.676 250H0c12.124-.772 24.214-1.103 36.338-1.691l18.152-.588 16.244-.409a3812.152 3812.152 0 0 1 16.654-60.878l8.855-31.25 9.058-31.213c6.165-20.772 12.397-41.508 18.833-62.206 3.27-10.294 6.471-20.662 9.843-30.92 3.371-10.257 6.675-20.628 10.216-30.845Zm-19.887 0c-8.786.989-17.573 1.618-26.393 2.096-4.393.257-8.787.514-13.18.661-3.644.147-7.288.294-10.932.368-1.124 4.301-2.248 8.57-3.405 12.868l-4.19 14.967c-1.362 4.96-2.894 9.926-4.324 14.89a739.349 739.349 0 0 1-4.462 14.852c-1.532 4.927-3.03 9.927-4.665 14.816-1.635 4.89-3.168 9.853-4.836 14.743-3.304 9.779-6.743 19.449-10.524 29.044L71.52.004 124.306 0ZM208.9 0c-8.991.989-17.982 1.618-26.972 2.096-4.496.289-8.991.51-13.487.661-3.746.147-7.458.294-11.204.401l-3.508 13.129-4.257 15.294-4.427 15.217c-1.465 5.114-2.997 10.147-4.564 15.184-1.566 5.036-3.099 10.11-4.767 15.147-1.669 5.036-3.202 10.077-4.939 15.04-3.337 10.037-6.879 20-10.727 29.853L154.955 0H208.9Z" opacity=".3" style="mix-blend-mode:multiply"/>
    <path fill="#000" d="M263.661 248.268c10.932-.401 21.83-.735 32.762-.989-2.622-8.492-5.176-16.985-7.73-25.514a2013.27 2013.27 0 0 1-8.582-29.122c-5.688-19.408-11.171-38.93-16.62-58.415l-8.003-29.342-7.765-29.412c-2.52-9.816-5.074-19.628-7.424-29.481-2.418-9.89-4.904-19.71-7.118-29.633L299.999 250h-72.641c12.09-.831 24.214-1.176 36.303-1.732Z" opacity=".3" style="mix-blend-mode:multiply"/>
  </g>
  <mask id="e" width="300" height="250" x="0" y="0" maskUnits="userSpaceOnUse" style="mask-type:luminance">
    <path fill="#fff" d="M300 0H0v250h300V0Z"/>
  </mask>
  <g mask="url(#e)">
    <path fill="url(#f)" d="M144.193 0 72.676 250H0l36.61-127.978L71.518 0h72.675Z"/>
    <path fill="url(#g)" d="m227.631 0-71.518 250H83.438l36.61-127.978L154.955 0h72.676Z"/>
    <path fill="url(#h)" d="M299.999 250h-72.641l-12.908-45.074v-.036l-17.606-61.544L233.181 16.36 299.999 250Z"/>
    <path fill="#fff" d="M134.964 7.353 9.229 242.647 76.558 7.353h58.406Zm83.438 0L92.667 242.647 159.995 7.353h58.407Z" opacity=".4" style="mix-blend-mode:screen"/>
    <path fill="#000" d="m233.182 16.36-18.731 188.548-17.614-61.562L233.182 16.36ZM227.631 0l-71.518 250H83.437c12.124-.772 24.214-1.103 36.338-1.691l18.152-.588 16.245-.409a3818.482 3818.482 0 0 1 16.653-60.878l8.855-31.25 9.059-31.213c6.164-20.772 12.396-41.508 18.833-62.206 3.269-10.294 6.47-20.662 9.842-30.92 3.372-10.257 6.675-20.628 10.217-30.845Zm-83.438 0L72.676 250H0c12.124-.772 24.214-1.103 36.338-1.691l18.152-.588 16.244-.409a3812.152 3812.152 0 0 1 16.654-60.878l8.855-31.25 9.058-31.213c6.165-20.772 12.397-41.508 18.833-62.206 3.27-10.294 6.471-20.662 9.843-30.92 3.371-10.257 6.675-20.628 10.216-30.845Zm-19.887 0c-8.786.989-17.573 1.618-26.393 2.096-4.393.257-8.787.514-13.18.661-3.644.147-7.288.294-10.932.368-1.124 4.301-2.248 8.57-3.405 12.868l-4.19 14.967c-1.362 4.96-2.894 9.926-4.324 14.89a739.349 739.349 0 0 1-4.462 14.852c-1.532 4.927-3.03 9.927-4.665 14.816-1.635 4.89-3.168 9.853-4.836 14.743-3.304 9.779-6.743 19.449-10.524 29.044L71.52.004 124.306 0ZM208.9 0c-8.991.989-17.982 1.618-26.972 2.096-4.496.289-8.991.51-13.487.661-3.746.147-7.458.294-11.204.401l-3.508 13.129-4.257 15.294-4.427 15.217c-1.465 5.114-2.997 10.147-4.564 15.184-1.566 5.036-3.099 10.11-4.767 15.147-1.669 5.036-3.202 10.077-4.939 15.04-3.337 10.037-6.879 20-10.727 29.853L154.955 0H208.9Z" opacity=".3" style="mix-blend-mode:multiply"/>
    <path fill="#000" d="M263.661 248.268c10.932-.401 21.83-.735 32.762-.989-2.622-8.492-5.176-16.985-7.73-25.514a2013.27 2013.27 0 0 1-8.582-29.122c-5.688-19.408-11.171-38.93-16.62-58.415l-8.003-29.342-7.765-29.412c-2.52-9.816-5.074-19.628-7.424-29.481-2.418-9.89-4.904-19.71-7.118-29.633L299.999 250h-72.641c12.09-.831 24.214-1.176 36.303-1.732Z" opacity=".3" style="mix-blend-mode:multiply"/>
  </g>
  <defs>
    <linearGradient id="b" x1="72.097" x2="72.097" y1="2.75" y2="253.25" gradientUnits="userSpaceOnUse">
      <stop/>
      <stop offset=".238"/>
      <stop offset=".44"/>
      <stop offset=".629"/>
      <stop offset=".81"/>
      <stop offset=".983"/>
      <stop offset="1"/>
    </linearGradient>
    <linearGradient id="c" x1="155.534" x2="155.534" y1="2.75" y2="253.25" gradientUnits="userSpaceOnUse">
      <stop/>
      <stop offset=".238"/>
      <stop offset=".44"/>
      <stop offset=".629"/>
      <stop offset=".81"/>
      <stop offset=".983"/>
      <stop offset="1"/>
    </linearGradient>
    <linearGradient id="d" x1="272.869" x2="159.717" y1="253.037" y2="190.968" gradientUnits="userSpaceOnUse">
      <stop/>
      <stop offset=".247"/>
      <stop offset=".75" stop-color="#555"/>
      <stop offset="1"/>
    </linearGradient>
    <linearGradient id="f" x1="72.097" x2="72.097" y1="2.75" y2="253.25" gradientUnits="userSpaceOnUse">
      <stop/>
      <stop offset=".238"/>
      <stop offset=".44"/>
      <stop offset=".629"/>
      <stop offset=".81"/>
      <stop offset=".983"/>
      <stop offset="1"/>
    </linearGradient>
    <linearGradient id="g" x1="155.534" x2="155.534" y1="2.75" y2="253.25" gradientUnits="userSpaceOnUse">
      <stop/>
      <stop offset=".238"/>
      <stop offset=".44"/>
      <stop offset=".629"/>
      <stop offset=".81"/>
      <stop offset=".983"/>
      <stop offset="1"/>
    </linearGradient>
    <linearGradient id="h" x1="272.869" x2="159.717" y1="253.037" y2="190.968" gradientUnits="userSpaceOnUse">
      <stop/>
      <stop offset=".247"/>
      <stop offset=".75" stop-color="#555"/>
      <stop offset="1"/>
    </linearGradient>
  </defs>
</svg>
