<svg xmlns="http://www.w3.org/2000/svg" width="1015" height="274" fill="none" viewBox="0 0 1015 274">
  <path fill="#000" d="m351.28 119 41.216-91.52h31.616L465.328 119h-22.272l-8.704-19.328h-52.096L373.552 119H351.28Zm38.4-35.968h37.248L409.136 43.48h-1.664L389.68 83.032Zm95.726 64.768v-14.72h38.656c5.12 0 7.68-2.603 7.68-7.808V119h-28.16c-11.435 0-20.352-2.816-26.752-8.448-6.4-5.632-9.6-13.781-9.6-24.448 0-10.752 3.2-18.944 9.6-24.576 6.4-5.632 15.317-8.448 26.752-8.448h46.72v74.496c0 6.059-1.749 10.923-5.248 14.592-3.499 3.755-8.96 5.632-16.384 5.632h-43.264Zm18.176-43.52h28.16V67.8h-28.16c-5.547 0-9.813 1.536-12.8 4.608-2.901 2.987-4.352 7.552-4.352 13.696 0 6.059 1.451 10.624 4.352 13.696 2.987 2.987 7.253 4.48 12.8 4.48ZM564.415 119V53.08h50.432c7.424 0 12.885 1.877 16.384 5.632 3.499 3.67 5.248 8.533 5.248 14.592V87h-18.816V75.608c0-5.12-2.56-7.68-7.68-7.68h-26.752V119h-18.816Zm82.25 0V53.08h18.56V119h-18.56Zm-.128-76.8V27.736h18.816V42.2h-18.816ZM681.21 119V27.48h20.48v37.504h64.512V27.48h20.48V119h-20.48V81.624H701.69V119h-20.48Zm121.455 0V53.08h18.56V119h-18.56Zm-.128-76.8V27.736h18.816V42.2h-18.816ZM835.29 119V53.08h50.432c7.424 0 12.885 1.877 16.384 5.632 3.499 3.67 5.248 8.533 5.248 14.592V87h-18.816V75.608c0-5.12-2.56-7.68-7.68-7.68h-26.752V119H835.29Zm118.542.64c-11.435 0-20.352-2.816-26.752-8.448-6.4-5.717-9.6-14.08-9.6-25.088 0-11.093 3.2-19.456 9.6-25.088 6.4-5.717 15.317-8.576 26.752-8.576h32c7.509 0 13.227 1.792 17.148 5.376 4.01 3.499 6.02 8.533 6.02 15.104 0 13.397-7.72 20.096-23.168 20.096h-48.384c1.792 7.936 7.253 11.904 16.384 11.904h51.838v14.72h-51.838Zm0-52.48c-8.789 0-14.208 3.712-16.256 11.136h47.36c1.707 0 3.029-.512 3.968-1.536 1.024-1.024 1.536-2.432 1.536-4.224 0-3.584-1.835-5.376-5.504-5.376h-31.104ZM356.016 273.64V257l73.6.128c3.755 0 6.613-.853 8.576-2.56 2.048-1.792 3.072-4.651 3.072-8.576 0-3.925-1.024-6.741-3.072-8.448-1.963-1.792-4.821-2.688-8.576-2.688h-45.824c-9.472 0-16.853-2.261-22.144-6.784-5.205-4.608-7.808-11.349-7.808-20.224s2.603-15.573 7.808-20.096c5.291-4.608 12.672-6.912 22.144-6.912h71.936v16.64l-69.76-.128c-3.669 0-6.528.853-8.576 2.56-2.048 1.621-3.072 4.267-3.072 7.936 0 3.669 1.024 6.357 3.072 8.064 2.048 1.621 4.907 2.432 8.576 2.432h45.824c9.472 0 16.811 2.347 22.016 7.04 5.291 4.608 7.936 11.477 7.936 20.608 0 9.045-2.645 15.915-7.936 20.608-5.205 4.693-12.544 7.04-22.016 7.04h-75.776Zm150.441 0c-11.435 0-20.352-2.816-26.752-8.448-6.4-5.717-9.6-14.08-9.6-25.088 0-11.093 3.2-19.456 9.6-25.088 6.4-5.717 15.317-8.576 26.752-8.576h23.68c11.435 0 20.352 2.859 26.752 8.576 6.4 5.632 9.6 13.995 9.6 25.088 0 11.008-3.2 19.371-9.6 25.088-6.4 5.632-15.317 8.448-26.752 8.448h-23.68Zm0-14.72h23.68c5.547 0 9.771-1.536 12.672-4.608 2.987-3.072 4.48-7.808 4.48-14.208 0-6.485-1.493-11.264-4.48-14.336-2.901-3.072-7.125-4.608-12.672-4.608h-23.68c-5.547 0-9.813 1.536-12.8 4.608-2.901 3.072-4.352 7.851-4.352 14.336 0 6.4 1.451 11.136 4.352 14.208 2.987 3.072 7.253 4.608 12.8 4.608ZM578.04 273v-91.52h18.56V273h-18.56Zm53.617 0c-7.509 0-13.013-1.877-16.512-5.632-3.413-3.755-5.12-8.619-5.12-14.592V207.08h18.56v43.52c0 5.12 2.56 7.68 7.68 7.68h26.624c5.12 0 7.68-2.56 7.68-7.68v-43.52h18.56v45.696c0 5.973-1.749 10.837-5.248 14.592-3.413 3.755-8.875 5.632-16.384 5.632h-35.84Zm105.187 0c-7.424 0-12.885-1.835-16.384-5.504-3.499-3.755-5.248-8.661-5.248-14.72V221.8H696.14v-14.72h19.072v-20.224h18.56v20.224h27.392v14.72h-27.392v28.672c0 5.205 2.56 7.808 7.68 7.808h23.296V273h-27.904Zm37.446 0v-65.92h18.56V273h-18.56Zm-.128-76.8v-14.464h18.816V196.2h-18.816Zm66.545 77.44c-11.435 0-20.352-2.816-26.752-8.448-6.4-5.717-9.6-14.08-9.6-25.088 0-11.093 3.2-19.456 9.6-25.088 6.4-5.717 15.317-8.576 26.752-8.576h23.68c11.435 0 20.352 2.859 26.752 8.576 6.4 5.632 9.6 13.995 9.6 25.088 0 11.008-3.2 19.371-9.6 25.088-6.4 5.632-15.317 8.448-26.752 8.448h-23.68Zm0-14.72h23.68c5.547 0 9.771-1.536 12.672-4.608 2.987-3.072 4.48-7.808 4.48-14.208 0-6.485-1.493-11.264-4.48-14.336-2.901-3.072-7.125-4.608-12.672-4.608h-23.68c-5.547 0-9.813 1.536-12.8 4.608-2.901 3.072-4.352 7.851-4.352 14.336 0 6.4 1.451 11.136 4.352 14.208 2.987 3.072 7.253 4.608 12.8 4.608ZM912.29 273v-65.92h57.472c7.509 0 12.971 1.877 16.384 5.632 3.499 3.669 5.248 8.533 5.248 14.592V273h-18.56v-43.52c0-5.12-2.56-7.68-7.68-7.68H930.85V273h-18.56Z"/>
  <mask id="a" width="300" height="250" x="0" y="23" maskUnits="userSpaceOnUse" style="mask-type:luminance">
    <path fill="#fff" d="M300 23H0v250h300V23Z"/>
  </mask>
  <g mask="url(#a)">
    <path fill="url(#b)" d="M144.193 23 72.676 273H0l36.61-127.978L71.518 23h72.675Z"/>
    <path fill="url(#c)" d="m227.631 23-71.518 250H83.438l36.61-127.978L154.955 23h72.676Z"/>
    <path fill="url(#d)" d="M299.999 273h-72.641l-12.908-45.074v-.036l-17.606-61.544L233.181 39.36 299.999 273Z"/>
    <path fill="#fff" d="M134.964 30.353 9.229 265.647 76.558 30.353h58.406Zm83.438 0L92.667 265.647l67.328-235.294h58.407Z" opacity=".4" style="mix-blend-mode:screen"/>
    <path fill="#000" d="m233.182 39.36-18.731 188.548-17.614-61.562L233.182 39.36ZM227.631 23l-71.518 250H83.437c12.124-.772 24.214-1.103 36.338-1.691l18.152-.588 16.245-.409a3818.482 3818.482 0 0 1 16.653-60.878l8.855-31.25 9.059-31.213c6.164-20.772 12.396-41.508 18.833-62.206 3.269-10.294 6.47-20.662 9.842-30.92 3.372-10.257 6.675-20.628 10.217-30.845Zm-83.438 0L72.676 273H0c12.124-.772 24.214-1.103 36.338-1.691l18.152-.588 16.244-.409a3812.152 3812.152 0 0 1 16.654-60.878l8.855-31.25 9.058-31.213c6.165-20.772 12.397-41.508 18.833-62.206 3.27-10.294 6.471-20.662 9.843-30.92 3.371-10.257 6.675-20.628 10.216-30.845Zm-19.887 0c-8.786.989-17.573 1.618-26.393 2.096-4.393.257-8.787.514-13.18.661-3.644.147-7.288.294-10.932.368a1793.76 1793.76 0 0 1-3.405 12.868l-4.19 14.967c-1.362 4.96-2.894 9.926-4.324 14.89a739.349 739.349 0 0 1-4.462 14.852c-1.532 4.927-3.03 9.927-4.665 14.816-1.635 4.89-3.168 9.853-4.836 14.743-3.304 9.779-6.743 19.449-10.524 29.044L71.52 23.004 124.306 23Zm84.594 0c-8.991.989-17.982 1.618-26.972 2.096-4.496.289-8.991.51-13.487.661-3.746.147-7.458.294-11.204.401l-3.508 13.129-4.257 15.294-4.427 15.217c-1.465 5.114-2.997 10.147-4.564 15.184-1.566 5.036-3.099 10.11-4.768 15.147-1.668 5.036-3.201 10.077-4.938 15.04-3.337 10.037-6.879 20-10.727 29.853L154.955 23H208.9Z" opacity=".3" style="mix-blend-mode:multiply"/>
    <path fill="#000" d="M263.661 271.268c10.932-.401 21.83-.735 32.762-.989-2.622-8.492-5.176-16.985-7.73-25.514a2013.27 2013.27 0 0 1-8.582-29.122c-5.688-19.408-11.171-38.93-16.62-58.415l-8.003-29.342-7.765-29.412c-2.52-9.816-5.074-19.628-7.424-29.481-2.418-9.89-4.904-19.71-7.118-29.633L299.999 273h-72.641c12.09-.831 24.214-1.176 36.303-1.732Z" opacity=".3" style="mix-blend-mode:multiply"/>
  </g>
  <defs>
    <linearGradient id="b" x1="72.097" x2="72.097" y1="25.75" y2="276.25" gradientUnits="userSpaceOnUse">
      <stop stop-color="#C51616"/>
      <stop offset=".238" stop-color="#CE3312"/>
      <stop offset=".44" stop-color="#D7500F"/>
      <stop offset=".629" stop-color="#E16D0B"/>
      <stop offset=".81" stop-color="#EA8A07"/>
      <stop offset=".983" stop-color="#F3A704"/>
      <stop offset="1" stop-color="#FCC400"/>
    </linearGradient>
    <linearGradient id="c" x1="155.534" x2="155.534" y1="25.75" y2="276.25" gradientUnits="userSpaceOnUse">
      <stop stop-color="#C51616"/>
      <stop offset=".238" stop-color="#CE3312"/>
      <stop offset=".44" stop-color="#D7500F"/>
      <stop offset=".629" stop-color="#E16D0B"/>
      <stop offset=".81" stop-color="#EA8A07"/>
      <stop offset=".983" stop-color="#F3A704"/>
      <stop offset="1" stop-color="#FCC400"/>
    </linearGradient>
    <linearGradient id="d" x1="272.869" x2="159.717" y1="276.037" y2="213.968" gradientUnits="userSpaceOnUse">
      <stop stop-color="#3E6896"/>
      <stop offset=".247" stop-color="#355881"/>
      <stop offset=".75" stop-color="#1F324E"/>
      <stop offset="1" stop-color="#131D32"/>
    </linearGradient>
  </defs>
</svg>
